<svg width="25" height="29" viewBox="0 0 25 29" fill="none"
  xmlns="http://www.w3.org/2000/svg">
  <path d="M12.8479 6.69231C14.1479 6.69231 15.7776 5.80737 16.748 4.62746C17.627 3.55817 18.2678 2.06484 18.2678 0.571518C18.2678 0.368721 18.2495 0.165925 18.2129 0C16.7664 0.0553083 15.0269 0.977113 13.9832 2.21233C13.1592 3.15257 12.4084 4.62746 12.4084 6.13923C12.4084 6.36046 12.4451 6.58169 12.4634 6.65544C12.5549 6.67387 12.7014 6.69231 12.8479 6.69231ZM8.27026 29C10.0464 29 10.8337 27.8017 13.0493 27.8017C15.3015 27.8017 15.7959 28.9631 17.7734 28.9631C19.7144 28.9631 21.0144 27.1564 22.2412 25.3865C23.6145 23.3586 24.1821 21.3675 24.2188 21.2753C24.0906 21.2384 20.3735 19.7082 20.3735 15.4126C20.3735 11.6885 23.3032 10.0108 23.468 9.88175C21.5271 7.07947 18.5791 7.00572 17.7734 7.00572C15.5945 7.00572 13.8184 8.33312 12.7014 8.33312C11.4929 8.33312 9.8999 7.07947 8.01392 7.07947C4.42505 7.07947 0.78125 10.0661 0.78125 15.7076C0.78125 19.2104 2.13623 22.9161 3.80249 25.3128C5.23071 27.3407 6.47583 29 8.27026 29Z" fill="white"/>
</svg>
