<svg width="25" height="24" viewBox="0 0 25 24" fill="none" xmlns="http://www.w3.org/2000/svg">
<path d="M22.1667 5.25008H18.5417V2.83341C18.5417 1.49216 17.4663 0.416748 16.125 0.416748H8.87501C7.53376 0.416748 6.45834 1.49216 6.45834 2.83341V5.25008H2.83334C1.49209 5.25008 0.416672 6.3255 0.416672 7.66675V20.9584C0.416672 22.2997 1.49209 23.3751 2.83334 23.3751H22.1667C23.5079 23.3751 24.5833 22.2997 24.5833 20.9584V7.66675C24.5833 6.3255 23.5079 5.25008 22.1667 5.25008ZM8.87501 2.83341H16.125V5.25008H8.87501V2.83341ZM22.1667 20.9584H2.83334V18.5417H22.1667V20.9584ZM22.1667 14.9167H2.83334V8.87508C2.83334 8.2105 3.37709 7.66675 4.04167 7.66675H6.45834V8.87508C6.45834 9.53967 7.00209 10.0834 7.66667 10.0834C8.33126 10.0834 8.87501 9.53967 8.87501 8.87508V7.66675H16.125V8.87508C16.125 9.53967 16.6688 10.0834 17.3333 10.0834C17.9979 10.0834 18.5417 9.53967 18.5417 8.87508V7.66675H20.9583C21.6229 7.66675 22.1667 8.2105 22.1667 8.87508V14.9167Z" fill="#8A8A8A"/>
</svg>
