<svg width="16" height="8" viewBox="0 0 16 8" fill="none" xmlns="http://www.w3.org/2000/svg">
<path d="M8 7L7.34921 7.75926C7.7237 8.08025 8.2763 8.08025 8.65079 7.75926L8 7ZM1.65079 0.240743C1.23147 -0.118678 0.600165 -0.0701168 0.240743 0.349209C-0.118679 0.768535 -0.0701175 1.39983 0.349208 1.75926L1.65079 0.240743ZM15.6508 1.75926C16.0701 1.39984 16.1187 0.768536 15.7593 0.34921C15.3998 -0.0701155 14.7685 -0.118677 14.3492 0.240745L15.6508 1.75926ZM8.65079 6.24074L1.65079 0.240743L0.349208 1.75926L7.34921 7.75926L8.65079 6.24074ZM14.3492 0.240745L7.34921 6.24074L8.65079 7.75926L15.6508 1.75926L14.3492 0.240745Z" fill="#E8E2DC"/>
</svg>
