<svg width="12" height="6" viewBox="0 0 12 6" fill="none" xmlns="http://www.w3.org/2000/svg">
<path d="M6 5L5.37531 5.78087C5.74052 6.07304 6.25948 6.07304 6.6247 5.78087L6 5ZM1.6247 0.219131C1.19343 -0.125878 0.564142 -0.0559567 0.219133 0.375305C-0.125877 0.806567 -0.0559556 1.43586 0.375306 1.78087L1.6247 0.219131ZM11.6247 1.78087C12.056 1.43586 12.1259 0.806568 11.7809 0.375306C11.4359 -0.0559559 10.8066 -0.125877 10.3753 0.219132L11.6247 1.78087ZM6.6247 4.21913L1.6247 0.219131L0.375306 1.78087L5.37531 5.78087L6.6247 4.21913ZM10.3753 0.219132L5.37531 4.21913L6.6247 5.78087L11.6247 1.78087L10.3753 0.219132Z" fill="#B0A69D"/>
</svg>
