<svg width="25" height="23" viewBox="0 0 25 23" fill="none" xmlns="http://www.w3.org/2000/svg">
<path d="M23.9566 11.3154L13.7683 1.13242L13.0854 0.449509C12.9298 0.294936 12.7193 0.208183 12.5 0.208183C12.2807 0.208183 12.0703 0.294936 11.9147 0.449509L1.04348 11.3154C0.884041 11.4742 0.758034 11.6634 0.672896 11.8717C0.587758 12.08 0.545215 12.3033 0.547778 12.5283C0.558325 13.4564 1.33088 14.1974 2.25901 14.1974H3.37961V22.7852H21.6204V14.1974H22.7648C23.2156 14.1974 23.6402 14.0207 23.9592 13.7017C24.1163 13.5451 24.2408 13.3589 24.3254 13.1538C24.41 12.9488 24.4532 12.729 24.4523 12.5072C24.4523 12.059 24.2756 11.6345 23.9566 11.3154ZM13.9766 20.8867H11.0235V15.5078H13.9766V20.8867ZM19.722 12.2989V20.8867H15.6641V14.875C15.6641 14.2923 15.1921 13.8203 14.6094 13.8203H10.3906C9.80793 13.8203 9.33596 14.2923 9.33596 14.875V20.8867H5.27805V12.2989H2.7468L12.5027 2.55097L13.1117 3.16006L22.2559 12.2989H19.722Z" fill="#3E382F"/>
</svg>
