<svg width="27" height="25" viewBox="0 0 27 25" fill="none"
  xmlns="http://www.w3.org/2000/svg">
  <path d="M13.2589 0C5.93541 0 0 4.70099 0 10.4996C0 14.2283 2.45837 17.4994 6.15273 19.365L4.90317 24.0415C4.87982 24.1105 4.87636 24.1846 4.89318 24.2554C4.91 24.3263 4.94642 24.3909 4.99824 24.4419C5.06297 24.5087 5.15057 24.5484 5.24334 24.5529C5.33611 24.5575 5.42715 24.5266 5.49807 24.4664L10.8657 20.8276C11.6565 20.9424 12.4545 21.0006 13.2535 21.002C20.5879 21.002 26.5124 16.301 26.5124 10.4996C26.5124 4.69827 20.5797 0 13.2589 0Z" fill="#1D1D1B"/>
</svg>
