<svg width="21" height="19" viewBox="0 0 21 19" fill="none" xmlns="http://www.w3.org/2000/svg">
<path d="M19.6875 7.87664H4.12125L8.88563 2.15414C9.10841 1.88611 9.21559 1.54055 9.18359 1.19349C9.15159 0.846434 8.98304 0.5263 8.715 0.303519C8.44697 0.0807367 8.10141 -0.0264445 7.75435 0.00555384C7.40729 0.0375522 7.08716 0.206109 6.86437 0.474144L0.301875 8.34914C0.257723 8.41178 0.218242 8.47758 0.18375 8.54602C0.18375 8.61164 0.18375 8.65102 0.0918752 8.71664C0.0323842 8.86713 0.00123522 9.02733 0 9.18914C0.00123522 9.35096 0.0323842 9.51115 0.0918752 9.66164C0.0918752 9.72727 0.0918748 9.76664 0.18375 9.83227C0.218242 9.9007 0.257723 9.96651 0.301875 10.0291L6.86437 17.9041C6.98778 18.0523 7.14231 18.1715 7.31699 18.2531C7.49166 18.3348 7.68218 18.377 7.875 18.3766C8.18167 18.3772 8.47887 18.2704 8.715 18.0748C8.8479 17.9646 8.95776 17.8293 9.03829 17.6766C9.11881 17.5239 9.16842 17.3568 9.18427 17.1849C9.20012 17.013 9.1819 16.8396 9.13065 16.6748C9.0794 16.5099 8.99614 16.3568 8.88563 16.2241L4.12125 10.5016H19.6875C20.0356 10.5016 20.3694 10.3634 20.6156 10.1172C20.8617 9.87108 21 9.53724 21 9.18914C21 8.84105 20.8617 8.50721 20.6156 8.26107C20.3694 8.01493 20.0356 7.87664 19.6875 7.87664Z" fill="black"/>
</svg>
