<svg width="22" height="20" viewBox="0 0 22 20" fill="none"
  xmlns="http://www.w3.org/2000/svg">
  <path d="M20.3545 8.70867H4.78824L9.55262 2.98617C9.7754 2.71814 9.88258 2.37258 9.85058 2.02552C9.81858 1.67847 9.65003 1.35833 9.38199 1.13555C9.11396 0.912768 8.7684 0.805587 8.42134 0.837585C8.07428 0.869583 7.75415 1.03814 7.53137 1.30617L0.968867 9.18117C0.924716 9.24381 0.885234 9.30962 0.850742 9.37805C0.850742 9.44368 0.850742 9.48305 0.758867 9.54868C0.699376 9.69916 0.668227 9.85936 0.666992 10.0212C0.668227 10.183 0.699376 10.3432 0.758867 10.4937C0.758867 10.5593 0.758867 10.5987 0.850742 10.6643C0.885234 10.7327 0.924716 10.7985 0.968867 10.8612L7.53137 18.7362C7.65477 18.8843 7.80931 19.0035 7.98398 19.0851C8.15865 19.1668 8.34917 19.209 8.54199 19.2087C8.84866 19.2093 9.14586 19.1025 9.38199 18.9068C9.51489 18.7966 9.62475 18.6613 9.70528 18.5086C9.7858 18.3559 9.83541 18.1888 9.85126 18.0169C9.86711 17.845 9.84889 17.6716 9.79764 17.5068C9.7464 17.3419 9.66313 17.1888 9.55262 17.0562L4.78824 11.3337H20.3545C20.7026 11.3337 21.0364 11.1954 21.2826 10.9493C21.5287 10.7031 21.667 10.3693 21.667 10.0212C21.667 9.67308 21.5287 9.33924 21.2826 9.0931C21.0364 8.84696 20.7026 8.70867 20.3545 8.70867Z" fill="#3E382F"/>
</svg>
