<svg width="15" height="14" viewBox="0 0 15 14" fill="none" xmlns="http://www.w3.org/2000/svg">
<path d="M7.03916 1.38943C7.28352 0.637342 8.34753 0.637339 8.5919 1.38943L9.6483 4.64068C9.75758 4.97702 10.071 5.20475 10.4247 5.20475H13.8432C14.634 5.20475 14.9628 6.21668 14.3231 6.68149L11.5574 8.69088C11.2713 8.89875 11.1515 9.26721 11.2608 9.60356L12.3172 12.8548C12.5616 13.6069 11.7008 14.2323 11.061 13.7675L8.29535 11.7581C8.00924 11.5502 7.62182 11.5502 7.3357 11.7581L4.57003 13.7675C3.93026 14.2323 3.06946 13.6069 3.31383 12.8548L4.37022 9.60356C4.47951 9.26721 4.35979 8.89875 4.07368 8.69088L1.308 6.6815C0.668236 6.21668 0.99703 5.20475 1.78782 5.20475H5.20639C5.56004 5.20475 5.87348 4.97702 5.98276 4.64068L7.03916 1.38943Z" fill="#E5E5E5"/>
</svg>
