<svg width="9" height="14" viewBox="0 0 9 14" fill="none" xmlns="http://www.w3.org/2000/svg">
<path d="M2.16552 0.384102C1.67489 -0.101569 0.883445 -0.0975515 0.397774 0.393075C-0.0878971 0.883702 -0.0838796 1.67515 0.406747 2.16082L2.16552 0.384102ZM7.07185 6.99973L7.95123 7.88809C8.1884 7.65332 8.32185 7.33345 8.32185 6.99973C8.32185 6.66601 8.1884 6.34615 7.95123 6.11138L7.07185 6.99973ZM0.406747 11.8386C-0.0838796 12.3243 -0.0878971 13.1158 0.397774 13.6064C0.883445 14.097 1.67489 14.101 2.16552 13.6154L0.406747 11.8386ZM0.406747 2.16082L6.19246 7.88809L7.95123 6.11138L2.16552 0.384102L0.406747 2.16082ZM6.19246 6.11138L0.406747 11.8386L2.16552 13.6154L7.95123 7.88809L6.19246 6.11138Z" fill="#B0A69D"/>
</svg>
