<svg width="10" height="15" viewBox="0 0 10 15" fill="none" xmlns="http://www.w3.org/2000/svg">
<path d="M2.29168 0.459087C1.79231 -0.0175872 1.00107 0.000813723 0.524395 0.500187C0.0477204 0.999559 0.0661213 1.7908 0.565494 2.26748L2.29168 0.459087ZM7.85716 7.49965L8.72025 8.40384C8.96736 8.16797 9.10716 7.84125 9.10716 7.49965C9.10716 7.15804 8.96736 6.83132 8.72025 6.59545L7.85716 7.49965ZM0.565494 12.7318C0.0661213 13.2085 0.0477204 13.9997 0.524395 14.4991C1.00107 14.9985 1.79231 15.0169 2.29168 14.5402L0.565494 12.7318ZM0.565494 2.26748L6.99406 8.40384L8.72025 6.59545L2.29168 0.459087L0.565494 2.26748ZM6.99406 6.59545L0.565494 12.7318L2.29168 14.5402L8.72025 8.40384L6.99406 6.59545Z" fill="#3E382F"/>
</svg>
