<svg width="20" height="19" viewBox="0 0 20 19" fill="none" xmlns="http://www.w3.org/2000/svg">
<path d="M5.29167 8.45829V16.7916C5.29167 17.0679 5.18192 17.3328 4.98657 17.5282C4.79122 17.7235 4.52627 17.8333 4.25 17.8333H2.16667C1.8904 17.8333 1.62545 17.7235 1.4301 17.5282C1.23475 17.3328 1.125 17.0679 1.125 16.7916V9.49996C1.125 9.22369 1.23475 8.95874 1.4301 8.76339C1.62545 8.56804 1.8904 8.45829 2.16667 8.45829H5.29167ZM5.29167 8.45829C6.39674 8.45829 7.45654 8.01931 8.23795 7.2379C9.01935 6.4565 9.45833 5.3967 9.45833 4.29163V3.24996C9.45833 2.69743 9.67783 2.16752 10.0685 1.77682C10.4592 1.38612 10.9891 1.16663 11.5417 1.16663C12.0942 1.16663 12.6241 1.38612 13.0148 1.77682C13.4055 2.16752 13.625 2.69743 13.625 3.24996V8.45829H16.75C17.3025 8.45829 17.8324 8.67779 18.2231 9.06849C18.6138 9.45919 18.8333 9.98909 18.8333 10.5416L17.7917 15.75C17.6419 16.389 17.3577 16.9377 16.9819 17.3135C16.6062 17.6892 16.1592 17.8717 15.7083 17.8333H8.41667C7.58787 17.8333 6.79301 17.5041 6.20696 16.918C5.62091 16.332 5.29167 15.5371 5.29167 14.7083" stroke="white" stroke-width="2" stroke-linecap="round" stroke-linejoin="round"/>
</svg>
