<svg width="8" height="8" viewBox="0 0 8 8" fill="none" xmlns="http://www.w3.org/2000/svg">
<path d="M4.86628 3.99893L7.50817 1.36319C7.62386 1.24749 7.68886 1.09058 7.68886 0.926966C7.68886 0.763352 7.62386 0.606439 7.50817 0.490747C7.39247 0.375054 7.23556 0.310059 7.07195 0.310059C6.90833 0.310059 6.75142 0.375054 6.63573 0.490747L3.99998 3.13264L1.36423 0.490747C1.24854 0.375054 1.09163 0.310059 0.928014 0.310059C0.7644 0.310059 0.607488 0.375054 0.491795 0.490747C0.376103 0.606439 0.311107 0.763352 0.311107 0.926966C0.311107 1.09058 0.376103 1.24749 0.491795 1.36319L3.13369 3.99893L0.491795 6.63468C0.434209 6.6918 0.388502 6.75975 0.35731 6.83462C0.326118 6.90949 0.310059 6.98979 0.310059 7.0709C0.310059 7.15201 0.326118 7.23231 0.35731 7.30718C0.388502 7.38205 0.434209 7.45 0.491795 7.50712C0.548911 7.5647 0.616863 7.61041 0.691733 7.6416C0.766602 7.6728 0.846907 7.68885 0.928014 7.68885C1.00912 7.68885 1.08943 7.6728 1.1643 7.6416C1.23917 7.61041 1.30712 7.5647 1.36423 7.50712L3.99998 4.86523L6.63573 7.50712C6.69284 7.5647 6.7608 7.61041 6.83567 7.6416C6.91054 7.6728 6.99084 7.68885 7.07195 7.68885C7.15306 7.68885 7.23336 7.6728 7.30823 7.6416C7.3831 7.61041 7.45105 7.5647 7.50817 7.50712C7.56575 7.45 7.61146 7.38205 7.64265 7.30718C7.67384 7.23231 7.6899 7.15201 7.6899 7.0709C7.6899 6.98979 7.67384 6.90949 7.64265 6.83462C7.61146 6.75975 7.56575 6.6918 7.50817 6.63468L4.86628 3.99893Z" fill="#3E382F"/>
</svg>
