<svg width="42" height="40" viewBox="0 0 42 40" fill="none" xmlns="http://www.w3.org/2000/svg">
<path d="M20.1033 0.816986C20.4701 0.0737407 21.5299 0.0737398 21.8967 0.816985L27.5269 12.2249C27.6725 12.52 27.9541 12.7246 28.2798 12.7719L40.8691 14.6012C41.6894 14.7204 42.0169 15.7284 41.4233 16.3069L32.3136 25.1867C32.0779 25.4165 31.9704 25.7475 32.026 26.0719L34.1765 38.6103C34.3167 39.4272 33.4592 40.0502 32.7256 39.6645L21.4653 33.7446C21.174 33.5915 20.826 33.5915 20.5347 33.7446L9.27441 39.6645C8.54078 40.0502 7.68335 39.4272 7.82346 38.6103L9.97398 26.0719C10.0296 25.7475 9.92207 25.4165 9.68638 25.1867L0.57665 16.3069C-0.0168669 15.7284 0.310642 14.7204 1.13086 14.6012L13.7202 12.7719C14.0459 12.7246 14.3275 12.52 14.4731 12.2249L20.1033 0.816986Z" fill="#F2F2F2"/>
</svg>
