<svg width="14" height="14" viewBox="0 0 14 14" fill="none"
  xmlns="http://www.w3.org/2000/svg">
  <path d="M6.10028 3.416L3.9953 0.986224C3.75264 0.706224 3.30775 0.707468 3.02588 0.989957L1.29486 2.72409C0.77966 3.23991 0.632193 4.00587 0.930238 4.62C2.7108 8.30665 5.68404 11.2841 9.36819 13.0698C9.9817 13.3678 10.747 13.2204 11.2622 12.7045L13.0094 10.9542C13.2925 10.6711 13.2932 10.2237 13.0107 9.98107L10.5716 7.88729C10.3165 7.66827 9.9201 7.69689 9.66437 7.95325L8.81566 8.8032C8.77221 8.84874 8.71502 8.87876 8.65286 8.88865C8.5907 8.89854 8.52701 8.88776 8.47157 8.85796C7.08429 8.05908 5.93352 6.90681 5.13646 5.51849C5.10661 5.46296 5.0958 5.39917 5.10569 5.3369C5.11558 5.27463 5.14563 5.21733 5.19122 5.17378L6.03744 4.32694C6.29379 4.06934 6.32179 3.67173 6.10028 3.416Z" stroke="#3E382F" stroke-width="1.5" stroke-linecap="round" stroke-linejoin="round"/>
</svg>
