<svg width="24" height="21" viewBox="0 0 24 21" fill="none"
  xmlns="http://www.w3.org/2000/svg">
  <path d="M21.625 3.78125H17.9062L17.0203 1.29844C16.9591 1.12855 16.8469 0.981692 16.6991 0.877939C16.5513 0.774185 16.3751 0.718591 16.1945 0.71875H7.80547C7.43633 0.71875 7.10547 0.951172 6.98242 1.29844L6.09375 3.78125H2.375C1.16641 3.78125 0.1875 4.76016 0.1875 5.96875V18.4375C0.1875 19.6461 1.16641 20.625 2.375 20.625H21.625C22.8336 20.625 23.8125 19.6461 23.8125 18.4375V5.96875C23.8125 4.76016 22.8336 3.78125 21.625 3.78125ZM21.8438 18.4375C21.8438 18.5578 21.7453 18.6562 21.625 18.6562H2.375C2.25469 18.6562 2.15625 18.5578 2.15625 18.4375V5.96875C2.15625 5.84844 2.25469 5.75 2.375 5.75H7.48008L7.94766 4.44297L8.57383 2.6875H15.4234L16.0496 4.44297L16.5172 5.75H21.625C21.7453 5.75 21.8438 5.84844 21.8438 5.96875V18.4375ZM12 7.5C9.58281 7.5 7.625 9.45781 7.625 11.875C7.625 14.2922 9.58281 16.25 12 16.25C14.4172 16.25 16.375 14.2922 16.375 11.875C16.375 9.45781 14.4172 7.5 12 7.5ZM12 14.5C10.5508 14.5 9.375 13.3242 9.375 11.875C9.375 10.4258 10.5508 9.25 12 9.25C13.4492 9.25 14.625 10.4258 14.625 11.875C14.625 13.3242 13.4492 14.5 12 14.5Z" fill="#B0A69D"/>
</svg>
