<svg width="81" height="90" viewBox="0 0 81 90" fill="none" xmlns="http://www.w3.org/2000/svg">
<path d="M66.9273 12.9161C58.2132 4.27742 47.212 0 34.0961 0H0V90H34.0961C47.212 90 58.2132 85.7226 66.9273 77.1677C75.6414 68.529 80.0431 57.8323 80.0431 45.0839C80.0431 32.3355 75.6414 21.5548 66.9273 12.9161ZM49.0072 60.2193C45.0973 64.2516 40.127 66.2258 34.0961 66.2258V66.2452H24.3598V23.7548H34.0961V23.7742C40.127 23.7742 45.0909 25.8323 49.0072 29.8645C53.0001 33.8968 54.955 38.9935 54.955 45.0839C54.955 51.1742 53.0001 56.1871 49.0072 60.2193Z" fill="white"/>
</svg>
