<svg width="217" height="47" viewBox="0 0 217 47" fill="none" xmlns="http://www.w3.org/2000/svg">
<path d="M192.663 47C185.704 47 179.867 44.7672 175.244 40.2578C170.621 35.7484 168.285 30.1647 168.285 23.4663C168.285 16.7679 170.621 11.228 175.244 6.71862C179.871 2.24964 185.704 0.016839 192.663 0.016839C199.622 0.016839 205.414 2.24964 210.038 6.71525C214.661 11.2246 216.997 16.8083 216.997 23.463C216.997 30.1176 214.661 35.7451 210.038 40.2544C205.414 44.7638 199.622 46.9966 192.663 46.9966V47ZM192.663 34.5899C195.819 34.5899 198.456 33.5156 200.574 31.4108C202.693 29.306 203.73 26.6455 203.73 23.4663C203.73 20.2872 202.693 17.6705 200.574 15.5656C198.456 13.4608 195.819 12.4303 192.663 12.4303C189.507 12.4303 186.829 13.4608 184.752 15.5656C182.633 17.6705 181.596 20.331 181.596 23.4663C181.596 26.6017 182.633 29.306 184.752 31.4108C186.826 33.5156 189.463 34.5899 192.663 34.5899Z" fill="#3E382F"/>
<path d="M154.32 23.5067H151.114V31.4579C149.005 33.5291 146.389 34.5866 143.26 34.5866C140.064 34.5866 137.427 33.5123 135.352 31.4074C133.234 29.3026 132.196 26.6421 132.196 23.463C132.196 20.2838 133.234 17.6671 135.352 15.5623C137.427 13.4574 140.064 12.4269 143.263 12.4269H150.056V0.016839H143.263C136.305 0.016839 130.468 2.24964 125.844 6.71525C121.221 11.2246 118.886 16.8083 118.886 23.463C118.886 30.1176 121.221 35.7451 125.844 40.2544C130.468 44.7638 136.305 46.9966 143.26 46.9966C150.219 46.9966 156.008 44.7638 160.635 40.2544C161.757 39.1599 162.736 38.0014 163.591 36.7823H163.597V23.5067H154.324H154.32Z" fill="#3E382F"/>
<path d="M116.655 34.142H98.4093V0H85.4849V34.142V46.9798H98.4093H116.655V34.142Z" fill="#3E382F"/>
<path d="M35.5091 6.75903C30.8857 2.24964 25.0489 0.016839 18.0901 0.016839H0V46.9966H18.0901C25.0489 46.9966 30.8857 44.7638 35.5091 40.2982C40.1325 35.7888 42.4679 30.2051 42.4679 23.5505C42.4679 16.8959 40.1325 11.2684 35.5091 6.75903ZM26.0014 31.4512C23.9269 33.556 21.2899 34.5866 18.0901 34.5866V34.5967H12.9244V12.4168H18.0901V12.4269C21.2899 12.4269 23.9236 13.5012 26.0014 15.606C28.1198 17.7109 29.157 20.3714 29.157 23.5505C29.157 26.7297 28.1198 29.3464 26.0014 31.4512Z" fill="#3E382F"/>
<path d="M71.5368 12.4269H78.3295V0.016839H71.5368C64.578 0.016839 58.7412 2.24964 54.1178 6.71525C49.4945 11.2246 47.1591 16.8083 47.1591 23.463C47.1591 30.1176 49.4945 35.7451 54.1178 40.2544C58.7412 44.7638 64.578 46.9966 71.5368 46.9966H78.3295V34.5866H71.5368C68.3371 34.5866 65.7034 33.5123 63.6256 31.4074C63.09 30.8753 62.6256 30.3095 62.2291 29.7067H78.3295V17.3068H62.2019C62.6053 16.6905 63.0765 16.1078 63.6256 15.5623C65.7 13.4574 68.3371 12.4269 71.5368 12.4269Z" fill="#3E382F"/>
</svg>
