<svg width="17" height="17" viewBox="0 0 17 17" fill="none" xmlns="http://www.w3.org/2000/svg">
<path d="M10.4957 8.49759L16.5815 2.42595C16.848 2.15945 16.9977 1.79799 16.9977 1.42109C16.9977 1.04419 16.848 0.682734 16.5815 0.416228C16.315 0.149722 15.9535 0 15.5766 0C15.1997 0 14.8383 0.149722 14.5718 0.416228L8.50012 6.50201L2.42849 0.416228C2.16198 0.149722 1.80052 -2.8081e-09 1.42363 0C1.04673 2.8081e-09 0.685271 0.149722 0.418765 0.416228C0.152259 0.682734 0.00253742 1.04419 0.00253742 1.42109C0.00253742 1.79799 0.152259 2.15945 0.418765 2.42595L6.50455 8.49759L0.418765 14.5692C0.286111 14.7008 0.180822 14.8573 0.108969 15.0298C0.0371158 15.2023 0.00012207 15.3872 0.00012207 15.5741C0.00012207 15.7609 0.0371158 15.9459 0.108969 16.1184C0.180822 16.2908 0.286111 16.4474 0.418765 16.5789C0.550336 16.7116 0.706869 16.8169 0.879336 16.8887C1.0518 16.9606 1.23679 16.9976 1.42363 16.9976C1.61046 16.9976 1.79545 16.9606 1.96792 16.8887C2.14039 16.8169 2.29692 16.7116 2.42849 16.5789L8.50012 10.4932L14.5718 16.5789C14.7033 16.7116 14.8599 16.8169 15.0323 16.8887C15.2048 16.9606 15.3898 16.9976 15.5766 16.9976C15.7635 16.9976 15.9484 16.9606 16.1209 16.8887C16.2934 16.8169 16.4499 16.7116 16.5815 16.5789C16.7141 16.4474 16.8194 16.2908 16.8913 16.1184C16.9631 15.9459 17.0001 15.7609 17.0001 15.5741C17.0001 15.3872 16.9631 15.2023 16.8913 15.0298C16.8194 14.8573 16.7141 14.7008 16.5815 14.5692L10.4957 8.49759Z" fill="#3E382F"/>
</svg>
