<svg width="30" height="30" viewBox="0 0 30 30" fill="none" xmlns="http://www.w3.org/2000/svg">
<path fill-rule="evenodd" clip-rule="evenodd" d="M3.91304 23.2C3.91304 21.017 4.53129 18.9799 5.60056 17.2575C6.91065 15.1473 8.8978 13.5096 11.2544 12.6553C12.4244 12.2311 13.6855 12 15 12C16.3145 12 17.5756 12.2311 18.7456 12.6553C21.1022 13.5096 23.0893 15.1473 24.3994 17.2575C25.4687 18.9799 26.087 21.017 26.087 23.2C26.087 29.3856 21.1232 30 15 30C8.87684 30 3.91304 29.3856 3.91304 23.2ZM15 9.33333C16.5556 9.33333 17.9295 8.53795 18.7538 7.32331C18.9979 6.96348 19.1939 6.56686 19.332 6.14322C19.4833 5.67916 19.5652 5.1827 19.5652 4.66667C19.5652 2.08934 17.5213 0 15 0C12.4787 0 10.4348 2.08934 10.4348 4.66667C10.4348 5.1827 10.5167 5.67916 10.668 6.14322C10.8061 6.56686 11.0021 6.96348 11.2462 7.32332C12.0705 8.53795 13.4444 9.33333 15 9.33333ZM21.1028 8.52345C21.2409 8.09981 21.4369 7.70318 21.681 7.34335C22.5052 6.12872 23.8791 5.33333 25.4348 5.33333C27.9561 5.33333 30 7.42267 30 10C30 12.4564 28.1433 14.4696 25.7863 14.653C25.6703 14.6621 25.553 14.6667 25.4348 14.6667C23.1439 14.6667 21.2471 12.9417 20.9196 10.6931C20.8866 10.4669 20.8696 10.2355 20.8696 10C20.8696 9.48397 20.9515 8.9875 21.1028 8.52345ZM4.56522 14.6667C4.44695 14.6667 4.32973 14.6621 4.21373 14.653C1.85666 14.4696 0 12.4564 0 10C0 7.42267 2.04392 5.33333 4.56522 5.33333C6.12085 5.33333 7.49476 6.12872 8.31898 7.34335C8.56315 7.70318 8.75908 8.09981 8.8972 8.52345C9.0485 8.9875 9.13043 9.48397 9.13043 10C9.13043 10.2355 9.11337 10.4669 9.08043 10.6931C8.75291 12.9417 6.85613 14.6667 4.56522 14.6667Z" fill="#3E382F"/>
</svg>
