<svg width="25" height="23" viewBox="0 0 25 23" fill="none" xmlns="http://www.w3.org/2000/svg">
<path d="M23.9565 11.3155L13.7683 1.13249L13.0854 0.449578C12.9298 0.295005 12.7193 0.208252 12.5 0.208252C12.2807 0.208252 12.0702 0.295005 11.9146 0.449578L1.04346 11.3155C0.884018 11.4743 0.758011 11.6635 0.672873 11.8718C0.587735 12.0801 0.545192 12.3034 0.547755 12.5284C0.558302 13.4565 1.33086 14.1974 2.25899 14.1974H3.37959V22.7852H21.6204V14.1974H22.7647C23.2156 14.1974 23.6401 14.0208 23.9592 13.7017C24.1163 13.5451 24.2407 13.3589 24.3254 13.1539C24.41 12.9489 24.4531 12.7291 24.4522 12.5073C24.4522 12.0591 24.2756 11.6345 23.9565 11.3155ZM13.9766 20.8868H11.0234V15.5079H13.9766V20.8868ZM19.722 12.299V20.8868H15.6641V14.8751C15.6641 14.2924 15.1921 13.8204 14.6094 13.8204H10.3906C9.80791 13.8204 9.33594 14.2924 9.33594 14.8751V20.8868H5.27803V12.299H2.74678L12.5026 2.55104L13.1117 3.16012L22.2559 12.299H19.722Z" fill="#8A8A8A"/>
</svg>
