<svg width="23" height="21" viewBox="0 0 23 21" fill="none" xmlns="http://www.w3.org/2000/svg">
<g filter="url(#filter0_d_3417_5072)">
<path d="M20.6875 7.87664H5.12125L9.88563 2.15414C10.1084 1.88611 10.2156 1.54055 10.1836 1.19349C10.1516 0.846434 9.98304 0.5263 9.715 0.303519C9.44697 0.0807367 9.10141 -0.0264445 8.75435 0.00555384C8.40729 0.0375522 8.08716 0.206109 7.86437 0.474144L1.30188 8.34914C1.25772 8.41178 1.21824 8.47758 1.18375 8.54602C1.18375 8.61164 1.18375 8.65102 1.09188 8.71664C1.03238 8.86713 1.00124 9.02733 1 9.18914C1.00124 9.35096 1.03238 9.51115 1.09188 9.66164C1.09188 9.72727 1.09187 9.76664 1.18375 9.83227C1.21824 9.9007 1.25772 9.96651 1.30188 10.0291L7.86437 17.9041C7.98778 18.0523 8.14231 18.1715 8.31699 18.2531C8.49166 18.3348 8.68218 18.377 8.875 18.3766C9.18167 18.3772 9.47887 18.2704 9.715 18.0748C9.8479 17.9646 9.95776 17.8293 10.0383 17.6766C10.1188 17.5239 10.1684 17.3568 10.1843 17.1849C10.2001 17.013 10.1819 16.8396 10.1307 16.6748C10.0794 16.5099 9.99614 16.3568 9.88563 16.2241L5.12125 10.5016H20.6875C21.0356 10.5016 21.3694 10.3634 21.6156 10.1172C21.8617 9.87108 22 9.53724 22 9.18914C22 8.84105 21.8617 8.50721 21.6156 8.26107C21.3694 8.01493 21.0356 7.87664 20.6875 7.87664Z" fill="white"/>
</g>
<defs>
<filter id="filter0_d_3417_5072" x="0" y="0" width="23" height="20.3765" filterUnits="userSpaceOnUse" color-interpolation-filters="sRGB">
<feFlood flood-opacity="0" result="BackgroundImageFix"/>
<feColorMatrix in="SourceAlpha" type="matrix" values="0 0 0 0 0 0 0 0 0 0 0 0 0 0 0 0 0 0 127 0" result="hardAlpha"/>
<feOffset dy="1"/>
<feGaussianBlur stdDeviation="0.5"/>
<feComposite in2="hardAlpha" operator="out"/>
<feColorMatrix type="matrix" values="0 0 0 0 0 0 0 0 0 0 0 0 0 0 0 0 0 0 0.2 0"/>
<feBlend mode="normal" in2="BackgroundImageFix" result="effect1_dropShadow_3417_5072"/>
<feBlend mode="normal" in="SourceGraphic" in2="effect1_dropShadow_3417_5072" result="shape"/>
</filter>
</defs>
</svg>
