<svg width="23" height="24" viewBox="0 0 23 24" fill="none" xmlns="http://www.w3.org/2000/svg">
<path d="M11.5 0.416748C10.3051 0.416748 9.13698 0.771086 8.14343 1.43495C7.14988 2.09882 6.37551 3.0424 5.91823 4.14637C5.46095 5.25034 5.3413 6.46512 5.57442 7.63709C5.80754 8.80905 6.38295 9.88558 7.2279 10.7305C8.07284 11.5755 9.14936 12.1509 10.3213 12.384C11.4933 12.6171 12.7081 12.4975 13.812 12.0402C14.916 11.5829 15.8596 10.8085 16.5235 9.81499C17.1873 8.82144 17.5417 7.65334 17.5417 6.45842C17.5417 4.85607 16.9051 3.31934 15.7721 2.18631C14.6391 1.05328 13.1024 0.416748 11.5 0.416748ZM11.5 10.0834C10.783 10.0834 10.0822 9.87081 9.48606 9.47249C8.88993 9.07417 8.4253 8.50802 8.15094 7.84564C7.87657 7.18326 7.80478 6.45439 7.94465 5.75121C8.08452 5.04803 8.42977 4.40212 8.93674 3.89515C9.4437 3.38819 10.0896 3.04294 10.7928 2.90307C11.496 2.7632 12.2248 2.83498 12.8872 3.10935C13.5496 3.38372 14.1158 3.84834 14.5141 4.44447C14.9124 5.0406 15.125 5.74146 15.125 6.45842C15.125 7.41982 14.7431 8.34186 14.0633 9.02168C13.3834 9.7015 12.4614 10.0834 11.5 10.0834ZM22.375 23.3751V22.1667C22.375 19.9235 21.4839 17.772 19.8976 16.1858C18.3114 14.5996 16.16 13.7084 13.9167 13.7084H9.08333C6.84004 13.7084 4.68863 14.5996 3.10239 16.1858C1.51614 17.772 0.625 19.9235 0.625 22.1667V23.3751H3.04167V22.1667C3.04167 20.5644 3.6782 19.0277 4.81123 17.8946C5.94426 16.7616 7.48098 16.1251 9.08333 16.1251H13.9167C15.519 16.1251 17.0557 16.7616 18.1888 17.8946C19.3218 19.0277 19.9583 20.5644 19.9583 22.1667V23.3751H22.375Z" fill="#3E382F"/>
</svg>
