<svg width="14" height="14" viewBox="0 0 14 14" fill="none" xmlns="http://www.w3.org/2000/svg">
<path d="M6.08017 1.38943C6.32454 0.637342 7.38855 0.637339 7.63292 1.38943L8.68931 4.64068C8.7986 4.97702 9.11203 5.20475 9.46568 5.20475H12.8843C13.675 5.20475 14.0038 6.21668 13.3641 6.68149L10.5984 8.69088C10.3123 8.89875 10.1926 9.26721 10.3018 9.60356L11.3582 12.8548C11.6026 13.6069 10.7418 14.2323 10.102 13.7675L7.33637 11.7581C7.05026 11.5502 6.66283 11.5502 6.37672 11.7581L3.61105 13.7675C2.97128 14.2323 2.11048 13.6069 2.35485 12.8548L3.41124 9.60356C3.52052 9.26721 3.4008 8.89875 3.11469 8.69088L0.349017 6.6815C-0.290749 6.21668 0.0380456 5.20475 0.82884 5.20475H4.2474C4.60106 5.20475 4.91449 4.97702 5.02378 4.64068L6.08017 1.38943Z" fill="#FFCC81"/>
</svg>
