<svg width="7" height="12" viewBox="0 0 7 12" fill="none" xmlns="http://www.w3.org/2000/svg">
<path d="M1.43298 0.739677C1.23898 0.543159 0.922401 0.541117 0.725883 0.735115C0.529366 0.929114 0.527323 1.24569 0.721321 1.44221L1.43298 0.739677ZM5.9233 6.00003L6.27913 6.3513C6.47136 6.15657 6.47136 5.8435 6.27913 5.64877L5.9233 6.00003ZM0.721321 10.5579C0.527323 10.7544 0.529366 11.071 0.725883 11.265C0.922401 11.459 1.23898 11.4569 1.43298 11.2604L0.721321 10.5579ZM0.721321 1.44221L5.56748 6.3513L6.27913 5.64877L1.43298 0.739677L0.721321 1.44221ZM5.56748 5.64877L0.721321 10.5579L1.43298 11.2604L6.27913 6.3513L5.56748 5.64877Z" fill="#3E382F"/>
</svg>
